<svg width="25" height="19" viewBox="0 0 25 19" fill="none" xmlns="http://www.w3.org/2000/svg">
<path d="M22.9673 1.63125C22.2899 1.14375 20.4024 0.496094 12.4934 0.496094C4.01806 0.496094 2.76064 1.23984 2.3571 1.4832C0.209448 2.77341 0.00554197 8.48552 -0.0131836 9.64372C0.0125976 11.1735 0.259863 16.2629 2.35556 17.5219C2.75832 17.7644 4.00869 18.5039 12.4934 18.5039C20.4075 18.5039 22.2927 17.8594 22.9673 17.3738C24.7977 16.057 25.0083 11.5223 25.0133 9.62385C25.0087 8.09729 24.8485 2.98635 22.9673 1.63127L22.9673 1.63125ZM22.0548 16.1059C21.7825 16.3019 20.2192 16.9414 12.4934 16.9414C5.02426 16.9414 3.45708 16.3617 3.16098 16.1832C2.40708 15.7308 1.61138 13.3297 1.5489 9.63943C1.61062 5.9574 2.41726 3.26951 3.16259 2.82263C3.45947 2.64333 5.03249 2.05896 12.4934 2.05896C20.2129 2.05896 21.7805 2.70273 22.0547 2.89961C22.7239 3.38164 23.4403 5.91914 23.4508 9.6289C23.4403 13.3969 22.7192 15.6277 22.0547 16.1059H22.0548ZM17.5883 8.8855L10.5587 4.5718C10.4402 4.50034 10.3048 4.46164 10.1665 4.45965C10.0281 4.45766 9.89169 4.49245 9.77118 4.56047C9.65056 4.6285 9.55018 4.72736 9.48031 4.84692C9.41044 4.96648 9.37359 5.10246 9.37353 5.24094V13.8698C9.37363 14.077 9.45597 14.2757 9.60246 14.4222C9.74895 14.5686 9.94761 14.651 10.1548 14.6511C10.297 14.6511 10.4365 14.6124 10.5583 14.539L17.588 10.2238C17.8223 10.082 17.9657 9.82849 17.9657 9.55463C17.9657 9.28078 17.8227 9.02651 17.5884 8.8855H17.5883ZM10.9364 12.4859V6.62412L15.6728 9.55459L10.9364 12.4859Z" fill="#7D0202"/>
</svg>
